<svg xmlns="http://www.w3.org/2000/svg" viewBox="0 0 612 792" width="612" height="792"><rect x="36" y="36" width="540" height="72" fill="#0ecd22" rx="8" ry="8"/><text x="306" y="68" text-anchor="middle" font-family="Helvetica, Arial, sans-serif" font-size="24" font-weight="700" fill="#ffffff">Vivid Holiday Schedule Chart</text><text x="306" y="92" text-anchor="middle" font-family="Helvetica, Arial, sans-serif" font-size="12" fill="#ffffff" opacity="0.85">Daily Routine</text><rect x="36" y="120" width="540" height="28" fill="#0ecd22" opacity="0.85" rx="4" ry="4"/><text x="76" y="139" text-anchor="middle" font-family="Helvetica, Arial, sans-serif" font-size="12" font-weight="700" fill="#ffffff">Time</text><text x="346" y="139" text-anchor="middle" font-family="Helvetica, Arial, sans-serif" font-size="12" font-weight="700" fill="#ffffff">Activity</text><rect x="36" y="148" width="540" height="37.6" fill="#f3f6f3"/><text x="76" y="170.8" text-anchor="middle" font-family="Helvetica, Arial, sans-serif" font-size="11" font-weight="600" fill="#c7dac9">7:00 AM</text><line x1="132" y1="177.6" x2="560" y2="177.6" stroke="#c7dac9" stroke-width="0.6" opacity="0.35"/><rect x="36" y="185.6" width="540" height="37.6" fill="#dde4de"/><text x="76" y="208.4" text-anchor="middle" font-family="Helvetica, Arial, sans-serif" font-size="11" font-weight="600" fill="#c7dac9">8:00 AM</text><line x1="132" y1="215.2" x2="560" y2="215.2" stroke="#c7dac9" stroke-width="0.6" opacity="0.35"/><rect x="36" y="223.2" width="540" height="37.6" fill="#f3f6f3"/><text x="76" y="246" text-anchor="middle" font-family="Helvetica, Arial, sans-serif" font-size="11" font-weight="600" fill="#c7dac9">9:00 AM</text><line x1="132" y1="252.8" x2="560" y2="252.8" stroke="#c7dac9" stroke-width="0.6" opacity="0.35"/><rect x="36" y="260.8" width="540" height="37.6" fill="#dde4de"/><text x="76" y="283.6" text-anchor="middle" font-family="Helvetica, Arial, sans-serif" font-size="11" font-weight="600" fill="#c7dac9">10:00 AM</text><line x1="132" y1="290.40000000000003" x2="560" y2="290.40000000000003" stroke="#c7dac9" stroke-width="0.6" opacity="0.35"/><rect x="36" y="298.4" width="540" height="37.6" fill="#f3f6f3"/><text x="76" y="321.2" text-anchor="middle" font-family="Helvetica, Arial, sans-serif" font-size="11" font-weight="600" fill="#c7dac9">11:00 AM</text><line x1="132" y1="328" x2="560" y2="328" stroke="#c7dac9" stroke-width="0.6" opacity="0.35"/><rect x="36" y="336" width="540" height="37.6" fill="#dde4de"/><text x="76" y="358.8" text-anchor="middle" font-family="Helvetica, Arial, sans-serif" font-size="11" font-weight="600" fill="#c7dac9">12:00 PM</text><line x1="132" y1="365.6" x2="560" y2="365.6" stroke="#c7dac9" stroke-width="0.6" opacity="0.35"/><rect x="36" y="373.6" width="540" height="37.6" fill="#f3f6f3"/><text x="76" y="396.40000000000003" text-anchor="middle" font-family="Helvetica, Arial, sans-serif" font-size="11" font-weight="600" fill="#c7dac9">1:00 PM</text><line x1="132" y1="403.20000000000005" x2="560" y2="403.20000000000005" stroke="#c7dac9" stroke-width="0.6" opacity="0.35"/><rect x="36" y="411.2" width="540" height="37.6" fill="#dde4de"/><text x="76" y="434" text-anchor="middle" font-family="Helvetica, Arial, sans-serif" font-size="11" font-weight="600" fill="#c7dac9">2:00 PM</text><line x1="132" y1="440.8" x2="560" y2="440.8" stroke="#c7dac9" stroke-width="0.6" opacity="0.35"/><rect x="36" y="448.8" width="540" height="37.6" fill="#f3f6f3"/><text x="76" y="471.6" text-anchor="middle" font-family="Helvetica, Arial, sans-serif" font-size="11" font-weight="600" fill="#c7dac9">3:00 PM</text><line x1="132" y1="478.40000000000003" x2="560" y2="478.40000000000003" stroke="#c7dac9" stroke-width="0.6" opacity="0.35"/><rect x="36" y="486.40000000000003" width="540" height="37.6" fill="#dde4de"/><text x="76" y="509.20000000000005" text-anchor="middle" font-family="Helvetica, Arial, sans-serif" font-size="11" font-weight="600" fill="#c7dac9">4:00 PM</text><line x1="132" y1="516" x2="560" y2="516" stroke="#c7dac9" stroke-width="0.6" opacity="0.35"/><rect x="36" y="524" width="540" height="37.6" fill="#f3f6f3"/><text x="76" y="546.8" text-anchor="middle" font-family="Helvetica, Arial, sans-serif" font-size="11" font-weight="600" fill="#c7dac9">5:00 PM</text><line x1="132" y1="553.6" x2="560" y2="553.6" stroke="#c7dac9" stroke-width="0.6" opacity="0.35"/><rect x="36" y="561.6" width="540" height="37.6" fill="#dde4de"/><text x="76" y="584.4" text-anchor="middle" font-family="Helvetica, Arial, sans-serif" font-size="11" font-weight="600" fill="#c7dac9">6:00 PM</text><line x1="132" y1="591.2" x2="560" y2="591.2" stroke="#c7dac9" stroke-width="0.6" opacity="0.35"/><rect x="36" y="599.2" width="540" height="37.6" fill="#f3f6f3"/><text x="76" y="622" text-anchor="middle" font-family="Helvetica, Arial, sans-serif" font-size="11" font-weight="600" fill="#c7dac9">7:00 PM</text><line x1="132" y1="628.8000000000001" x2="560" y2="628.8000000000001" stroke="#c7dac9" stroke-width="0.6" opacity="0.35"/><rect x="36" y="636.8" width="540" height="37.6" fill="#dde4de"/><text x="76" y="659.5999999999999" text-anchor="middle" font-family="Helvetica, Arial, sans-serif" font-size="11" font-weight="600" fill="#c7dac9">8:00 PM</text><line x1="132" y1="666.4" x2="560" y2="666.4" stroke="#c7dac9" stroke-width="0.6" opacity="0.35"/><rect x="36" y="674.4" width="540" height="37.6" fill="#f3f6f3"/><text x="76" y="697.1999999999999" text-anchor="middle" font-family="Helvetica, Arial, sans-serif" font-size="11" font-weight="600" fill="#c7dac9">9:00 PM</text><line x1="132" y1="704" x2="560" y2="704" stroke="#c7dac9" stroke-width="0.6" opacity="0.35"/><rect x="36" y="120" width="540" height="592" fill="none" stroke="#c7dac9" stroke-width="1" rx="4" ry="4"/><line x1="116" y1="120" x2="116" y2="712" stroke="#c7dac9" stroke-width="0.8"/><text x="306" y="748" text-anchor="middle" font-family="Helvetica, Arial, sans-serif" font-size="9" fill="#c7dac9" opacity="0.7">Chart template by Flinkis — printablechorechart.com  •  CC-BY-4.0</text></svg>