<svg xmlns="http://www.w3.org/2000/svg" viewBox="0 0 612 792" width="612" height="792"><rect x="36" y="36" width="540" height="72" fill="#2da8ea" rx="8" ry="8"/><text x="306" y="68" text-anchor="middle" font-family="Helvetica, Arial, sans-serif" font-size="24" font-weight="700" fill="#ffffff">Joyful Holiday Checklist</text><text x="306" y="92" text-anchor="middle" font-family="Helvetica, Arial, sans-serif" font-size="12" fill="#ffffff" opacity="0.85">Daily Checklist</text><rect x="36" y="120" width="540" height="32" fill="#8441d7" opacity="0.2" rx="4" ry="4"/><text x="52" y="142" font-family="Helvetica, Arial, sans-serif" font-size="13" font-weight="600" fill="#2da8ea">Date:</text><line x1="96" y1="142" x2="560" y2="142" stroke="#c7d3da" stroke-width="1"/><rect x="36" y="160" width="540" height="61.77777777777778" fill="#edf0f2"/><rect x="50" y="179.88888888888889" width="22" height="22" fill="white" stroke="#c7d3da" stroke-width="1.5" rx="4" ry="4"/><text x="86" y="195.88888888888889" font-family="Helvetica, Arial, sans-serif" font-size="13" font-weight="500" fill="#c7d3da">Morning</text><rect x="36" y="221.77777777777777" width="540" height="61.77777777777778" fill="#e7eaec"/><rect x="50" y="241.66666666666666" width="22" height="22" fill="white" stroke="#c7d3da" stroke-width="1.5" rx="4" ry="4"/><text x="86" y="257.66666666666663" font-family="Helvetica, Arial, sans-serif" font-size="13" font-weight="500" fill="#c7d3da">After Breakfast</text><rect x="36" y="283.55555555555554" width="540" height="61.77777777777778" fill="#edf0f2"/><rect x="50" y="303.44444444444446" width="22" height="22" fill="white" stroke="#c7d3da" stroke-width="1.5" rx="4" ry="4"/><text x="86" y="319.44444444444446" font-family="Helvetica, Arial, sans-serif" font-size="13" font-weight="500" fill="#c7d3da">Late Morning</text><rect x="36" y="345.33333333333337" width="540" height="61.77777777777778" fill="#e7eaec"/><rect x="50" y="365.2222222222223" width="22" height="22" fill="white" stroke="#c7d3da" stroke-width="1.5" rx="4" ry="4"/><text x="86" y="381.2222222222223" font-family="Helvetica, Arial, sans-serif" font-size="13" font-weight="500" fill="#c7d3da">Lunch</text><rect x="36" y="407.1111111111111" width="540" height="61.77777777777778" fill="#edf0f2"/><rect x="50" y="427" width="22" height="22" fill="white" stroke="#c7d3da" stroke-width="1.5" rx="4" ry="4"/><text x="86" y="443" font-family="Helvetica, Arial, sans-serif" font-size="13" font-weight="500" fill="#c7d3da">Afternoon</text><rect x="36" y="468.8888888888889" width="540" height="61.77777777777778" fill="#e7eaec"/><rect x="50" y="488.7777777777778" width="22" height="22" fill="white" stroke="#c7d3da" stroke-width="1.5" rx="4" ry="4"/><text x="86" y="504.7777777777778" font-family="Helvetica, Arial, sans-serif" font-size="13" font-weight="500" fill="#c7d3da">After School</text><rect x="36" y="530.6666666666667" width="540" height="61.77777777777778" fill="#edf0f2"/><rect x="50" y="550.5555555555557" width="22" height="22" fill="white" stroke="#c7d3da" stroke-width="1.5" rx="4" ry="4"/><text x="86" y="566.5555555555557" font-family="Helvetica, Arial, sans-serif" font-size="13" font-weight="500" fill="#c7d3da">Before Dinner</text><rect x="36" y="592.4444444444445" width="540" height="61.77777777777778" fill="#e7eaec"/><rect x="50" y="612.3333333333334" width="22" height="22" fill="white" stroke="#c7d3da" stroke-width="1.5" rx="4" ry="4"/><text x="86" y="628.3333333333334" font-family="Helvetica, Arial, sans-serif" font-size="13" font-weight="500" fill="#c7d3da">Evening</text><rect x="36" y="654.2222222222222" width="540" height="61.77777777777778" fill="#edf0f2"/><rect x="50" y="674.1111111111111" width="22" height="22" fill="white" stroke="#c7d3da" stroke-width="1.5" rx="4" ry="4"/><text x="86" y="690.1111111111111" font-family="Helvetica, Arial, sans-serif" font-size="13" font-weight="500" fill="#c7d3da">Before Bed</text><rect x="36" y="160" width="540" height="556" fill="none" stroke="#c7d3da" stroke-width="1" rx="4" ry="4"/><text x="306" y="748" text-anchor="middle" font-family="Helvetica, Arial, sans-serif" font-size="9" fill="#c7d3da" opacity="0.7">Chart template by Flinkis — printablechorechart.com  •  CC-BY-4.0</text></svg>