<svg xmlns="http://www.w3.org/2000/svg" viewBox="0 0 612 792" width="612" height="792"><rect x="36" y="36" width="540" height="72" fill="#e0432a" rx="8" ry="8"/><text x="306" y="68" text-anchor="middle" font-family="Helvetica, Arial, sans-serif" font-size="24" font-weight="700" fill="#ffffff">Cozy Holiday DIY Chart</text><text x="306" y="92" text-anchor="middle" font-family="Helvetica, Arial, sans-serif" font-size="12" fill="#ffffff" opacity="0.85">Write Your Own Chores</text><rect x="36" y="120" width="540" height="28" fill="#e0432a" opacity="0.85" rx="4" ry="4"/><text x="116" y="139" text-anchor="middle" font-family="Helvetica, Arial, sans-serif" font-size="12" font-weight="700" fill="#ffffff">Chore</text><text x="223.14285714285714" y="139" text-anchor="middle" font-family="Helvetica, Arial, sans-serif" font-size="12" font-weight="700" fill="#ffffff">Mon</text><text x="277.42857142857144" y="139" text-anchor="middle" font-family="Helvetica, Arial, sans-serif" font-size="12" font-weight="700" fill="#ffffff">Tue</text><text x="331.7142857142857" y="139" text-anchor="middle" font-family="Helvetica, Arial, sans-serif" font-size="12" font-weight="700" fill="#ffffff">Wed</text><text x="386" y="139" text-anchor="middle" font-family="Helvetica, Arial, sans-serif" font-size="12" font-weight="700" fill="#ffffff">Thu</text><text x="440.2857142857143" y="139" text-anchor="middle" font-family="Helvetica, Arial, sans-serif" font-size="12" font-weight="700" fill="#ffffff">Fri</text><text x="494.57142857142856" y="139" text-anchor="middle" font-family="Helvetica, Arial, sans-serif" font-size="12" font-weight="700" fill="#ffffff">Sat</text><text x="548.8571428571429" y="139" text-anchor="middle" font-family="Helvetica, Arial, sans-serif" font-size="12" font-weight="700" fill="#ffffff">Sun</text><rect x="36" y="148" width="540" height="70.5" fill="#f3f0ef"/><line x1="48" y1="210.5" x2="184" y2="210.5" stroke="#dacac7" stroke-width="0.8" opacity="0.4"/><rect x="214.14285714285714" y="174.25" width="18" height="18" fill="white" stroke="#dacac7" stroke-width="1" rx="3" ry="3"/><rect x="268.42857142857144" y="174.25" width="18" height="18" fill="white" stroke="#dacac7" stroke-width="1" rx="3" ry="3"/><rect x="322.7142857142857" y="174.25" width="18" height="18" fill="white" stroke="#dacac7" stroke-width="1" rx="3" ry="3"/><rect x="377" y="174.25" width="18" height="18" fill="white" stroke="#dacac7" stroke-width="1" rx="3" ry="3"/><rect x="431.2857142857143" y="174.25" width="18" height="18" fill="white" stroke="#dacac7" stroke-width="1" rx="3" ry="3"/><rect x="485.57142857142856" y="174.25" width="18" height="18" fill="white" stroke="#dacac7" stroke-width="1" rx="3" ry="3"/><rect x="539.8571428571429" y="174.25" width="18" height="18" fill="white" stroke="#dacac7" stroke-width="1" rx="3" ry="3"/><rect x="36" y="218.5" width="540" height="70.5" fill="#eae5e4"/><line x1="48" y1="281" x2="184" y2="281" stroke="#dacac7" stroke-width="0.8" opacity="0.4"/><rect x="214.14285714285714" y="244.75" width="18" height="18" fill="white" stroke="#dacac7" stroke-width="1" rx="3" ry="3"/><rect x="268.42857142857144" y="244.75" width="18" height="18" fill="white" stroke="#dacac7" stroke-width="1" rx="3" ry="3"/><rect x="322.7142857142857" y="244.75" width="18" height="18" fill="white" stroke="#dacac7" stroke-width="1" rx="3" ry="3"/><rect x="377" y="244.75" width="18" height="18" fill="white" stroke="#dacac7" stroke-width="1" rx="3" ry="3"/><rect x="431.2857142857143" y="244.75" width="18" height="18" fill="white" stroke="#dacac7" stroke-width="1" rx="3" ry="3"/><rect x="485.57142857142856" y="244.75" width="18" height="18" fill="white" stroke="#dacac7" stroke-width="1" rx="3" ry="3"/><rect x="539.8571428571429" y="244.75" width="18" height="18" fill="white" stroke="#dacac7" stroke-width="1" rx="3" ry="3"/><rect x="36" y="289" width="540" height="70.5" fill="#f3f0ef"/><line x1="48" y1="351.5" x2="184" y2="351.5" stroke="#dacac7" stroke-width="0.8" opacity="0.4"/><rect x="214.14285714285714" y="315.25" width="18" height="18" fill="white" stroke="#dacac7" stroke-width="1" rx="3" ry="3"/><rect x="268.42857142857144" y="315.25" width="18" height="18" fill="white" stroke="#dacac7" stroke-width="1" rx="3" ry="3"/><rect x="322.7142857142857" y="315.25" width="18" height="18" fill="white" stroke="#dacac7" stroke-width="1" rx="3" ry="3"/><rect x="377" y="315.25" width="18" height="18" fill="white" stroke="#dacac7" stroke-width="1" rx="3" ry="3"/><rect x="431.2857142857143" y="315.25" width="18" height="18" fill="white" stroke="#dacac7" stroke-width="1" rx="3" ry="3"/><rect x="485.57142857142856" y="315.25" width="18" height="18" fill="white" stroke="#dacac7" stroke-width="1" rx="3" ry="3"/><rect x="539.8571428571429" y="315.25" width="18" height="18" fill="white" stroke="#dacac7" stroke-width="1" rx="3" ry="3"/><rect x="36" y="359.5" width="540" height="70.5" fill="#eae5e4"/><line x1="48" y1="422" x2="184" y2="422" stroke="#dacac7" stroke-width="0.8" opacity="0.4"/><rect x="214.14285714285714" y="385.75" width="18" height="18" fill="white" stroke="#dacac7" stroke-width="1" rx="3" ry="3"/><rect x="268.42857142857144" y="385.75" width="18" height="18" fill="white" stroke="#dacac7" stroke-width="1" rx="3" ry="3"/><rect x="322.7142857142857" y="385.75" width="18" height="18" fill="white" stroke="#dacac7" stroke-width="1" rx="3" ry="3"/><rect x="377" y="385.75" width="18" height="18" fill="white" stroke="#dacac7" stroke-width="1" rx="3" ry="3"/><rect x="431.2857142857143" y="385.75" width="18" height="18" fill="white" stroke="#dacac7" stroke-width="1" rx="3" ry="3"/><rect x="485.57142857142856" y="385.75" width="18" height="18" fill="white" stroke="#dacac7" stroke-width="1" rx="3" ry="3"/><rect x="539.8571428571429" y="385.75" width="18" height="18" fill="white" stroke="#dacac7" stroke-width="1" rx="3" ry="3"/><rect x="36" y="430" width="540" height="70.5" fill="#f3f0ef"/><line x1="48" y1="492.5" x2="184" y2="492.5" stroke="#dacac7" stroke-width="0.8" opacity="0.4"/><rect x="214.14285714285714" y="456.25" width="18" height="18" fill="white" stroke="#dacac7" stroke-width="1" rx="3" ry="3"/><rect x="268.42857142857144" y="456.25" width="18" height="18" fill="white" stroke="#dacac7" stroke-width="1" rx="3" ry="3"/><rect x="322.7142857142857" y="456.25" width="18" height="18" fill="white" stroke="#dacac7" stroke-width="1" rx="3" ry="3"/><rect x="377" y="456.25" width="18" height="18" fill="white" stroke="#dacac7" stroke-width="1" rx="3" ry="3"/><rect x="431.2857142857143" y="456.25" width="18" height="18" fill="white" stroke="#dacac7" stroke-width="1" rx="3" ry="3"/><rect x="485.57142857142856" y="456.25" width="18" height="18" fill="white" stroke="#dacac7" stroke-width="1" rx="3" ry="3"/><rect x="539.8571428571429" y="456.25" width="18" height="18" fill="white" stroke="#dacac7" stroke-width="1" rx="3" ry="3"/><rect x="36" y="500.5" width="540" height="70.5" fill="#eae5e4"/><line x1="48" y1="563" x2="184" y2="563" stroke="#dacac7" stroke-width="0.8" opacity="0.4"/><rect x="214.14285714285714" y="526.75" width="18" height="18" fill="white" stroke="#dacac7" stroke-width="1" rx="3" ry="3"/><rect x="268.42857142857144" y="526.75" width="18" height="18" fill="white" stroke="#dacac7" stroke-width="1" rx="3" ry="3"/><rect x="322.7142857142857" y="526.75" width="18" height="18" fill="white" stroke="#dacac7" stroke-width="1" rx="3" ry="3"/><rect x="377" y="526.75" width="18" height="18" fill="white" stroke="#dacac7" stroke-width="1" rx="3" ry="3"/><rect x="431.2857142857143" y="526.75" width="18" height="18" fill="white" stroke="#dacac7" stroke-width="1" rx="3" ry="3"/><rect x="485.57142857142856" y="526.75" width="18" height="18" fill="white" stroke="#dacac7" stroke-width="1" rx="3" ry="3"/><rect x="539.8571428571429" y="526.75" width="18" height="18" fill="white" stroke="#dacac7" stroke-width="1" rx="3" ry="3"/><rect x="36" y="571" width="540" height="70.5" fill="#f3f0ef"/><line x1="48" y1="633.5" x2="184" y2="633.5" stroke="#dacac7" stroke-width="0.8" opacity="0.4"/><rect x="214.14285714285714" y="597.25" width="18" height="18" fill="white" stroke="#dacac7" stroke-width="1" rx="3" ry="3"/><rect x="268.42857142857144" y="597.25" width="18" height="18" fill="white" stroke="#dacac7" stroke-width="1" rx="3" ry="3"/><rect x="322.7142857142857" y="597.25" width="18" height="18" fill="white" stroke="#dacac7" stroke-width="1" rx="3" ry="3"/><rect x="377" y="597.25" width="18" height="18" fill="white" stroke="#dacac7" stroke-width="1" rx="3" ry="3"/><rect x="431.2857142857143" y="597.25" width="18" height="18" fill="white" stroke="#dacac7" stroke-width="1" rx="3" ry="3"/><rect x="485.57142857142856" y="597.25" width="18" height="18" fill="white" stroke="#dacac7" stroke-width="1" rx="3" ry="3"/><rect x="539.8571428571429" y="597.25" width="18" height="18" fill="white" stroke="#dacac7" stroke-width="1" rx="3" ry="3"/><rect x="36" y="641.5" width="540" height="70.5" fill="#eae5e4"/><line x1="48" y1="704" x2="184" y2="704" stroke="#dacac7" stroke-width="0.8" opacity="0.4"/><rect x="214.14285714285714" y="667.75" width="18" height="18" fill="white" stroke="#dacac7" stroke-width="1" rx="3" ry="3"/><rect x="268.42857142857144" y="667.75" width="18" height="18" fill="white" stroke="#dacac7" stroke-width="1" rx="3" ry="3"/><rect x="322.7142857142857" y="667.75" width="18" height="18" fill="white" stroke="#dacac7" stroke-width="1" rx="3" ry="3"/><rect x="377" y="667.75" width="18" height="18" fill="white" stroke="#dacac7" stroke-width="1" rx="3" ry="3"/><rect x="431.2857142857143" y="667.75" width="18" height="18" fill="white" stroke="#dacac7" stroke-width="1" rx="3" ry="3"/><rect x="485.57142857142856" y="667.75" width="18" height="18" fill="white" stroke="#dacac7" stroke-width="1" rx="3" ry="3"/><rect x="539.8571428571429" y="667.75" width="18" height="18" fill="white" stroke="#dacac7" stroke-width="1" rx="3" ry="3"/><rect x="36" y="120" width="540" height="592" fill="none" stroke="#dacac7" stroke-width="1" rx="4" ry="4"/><line x1="196" y1="120" x2="196" y2="712" stroke="#dacac7" stroke-width="0.8"/><text x="306" y="748" text-anchor="middle" font-family="Helvetica, Arial, sans-serif" font-size="9" fill="#dacac7" opacity="0.7">Chart template by Flinkis — printablechorechart.com  •  CC-BY-4.0</text></svg>