<svg xmlns="http://www.w3.org/2000/svg" viewBox="0 0 612 792" width="612" height="792"><rect x="36" y="36" width="540" height="72" fill="#3bc15b" rx="8" ry="8"/><text x="306" y="68" text-anchor="middle" font-family="Helvetica, Arial, sans-serif" font-size="24" font-weight="700" fill="#ffffff">Warm Holiday Reward Board</text><text x="306" y="92" text-anchor="middle" font-family="Helvetica, Arial, sans-serif" font-size="12" fill="#ffffff" opacity="0.85">Reward Tracker</text><rect x="36" y="120" width="540" height="60" fill="#5b94bc" opacity="0.18" rx="8" ry="8"/><text x="306" y="147" text-anchor="middle" font-family="Helvetica, Arial, sans-serif" font-size="11" font-weight="600" fill="#3bc15b" letter-spacing="2">My Goal</text><text x="306" y="168" text-anchor="middle" font-family="Helvetica, Arial, sans-serif" font-size="15" font-weight="600" fill="#c7dacc">My Reward Is: ____________________</text><rect x="44.1" y="302.6" width="37.8" height="37.8" fill="white" stroke="#c7dacc" stroke-width="1.2" rx="6" ry="6"/><path transform="translate(63,321.5)" d="M 0 -10 L 3 -3.2 L 10 -3.1 L 4.5 1.7 L 6.5 8.5 L 0 5 L -6.5 8.5 L -4.5 1.7 L -10 -3.1 L -3 -3.2 Z" fill="none" stroke="#2280c3" stroke-width="1.2"/><text x="63" y="352.4" text-anchor="middle" font-family="Helvetica, Arial, sans-serif" font-size="9" fill="#c7dacc" opacity="0.6">1</text><rect x="98.1" y="302.6" width="37.8" height="37.8" fill="white" stroke="#c7dacc" stroke-width="1.2" rx="6" ry="6"/><path transform="translate(117,321.5)" d="M 0 -10 L 3 -3.2 L 10 -3.1 L 4.5 1.7 L 6.5 8.5 L 0 5 L -6.5 8.5 L -4.5 1.7 L -10 -3.1 L -3 -3.2 Z" fill="none" stroke="#2280c3" stroke-width="1.2"/><text x="117" y="352.4" text-anchor="middle" font-family="Helvetica, Arial, sans-serif" font-size="9" fill="#c7dacc" opacity="0.6">2</text><rect x="152.1" y="302.6" width="37.8" height="37.8" fill="white" stroke="#c7dacc" stroke-width="1.2" rx="6" ry="6"/><path transform="translate(171,321.5)" d="M 0 -10 L 3 -3.2 L 10 -3.1 L 4.5 1.7 L 6.5 8.5 L 0 5 L -6.5 8.5 L -4.5 1.7 L -10 -3.1 L -3 -3.2 Z" fill="none" stroke="#2280c3" stroke-width="1.2"/><text x="171" y="352.4" text-anchor="middle" font-family="Helvetica, Arial, sans-serif" font-size="9" fill="#c7dacc" opacity="0.6">3</text><rect x="206.1" y="302.6" width="37.8" height="37.8" fill="white" stroke="#c7dacc" stroke-width="1.2" rx="6" ry="6"/><path transform="translate(225,321.5)" d="M 0 -10 L 3 -3.2 L 10 -3.1 L 4.5 1.7 L 6.5 8.5 L 0 5 L -6.5 8.5 L -4.5 1.7 L -10 -3.1 L -3 -3.2 Z" fill="none" stroke="#2280c3" stroke-width="1.2"/><text x="225" y="352.4" text-anchor="middle" font-family="Helvetica, Arial, sans-serif" font-size="9" fill="#c7dacc" opacity="0.6">4</text><rect x="260.1" y="302.6" width="37.8" height="37.8" fill="white" stroke="#c7dacc" stroke-width="1.2" rx="6" ry="6"/><path transform="translate(279,321.5)" d="M 0 -10 L 3 -3.2 L 10 -3.1 L 4.5 1.7 L 6.5 8.5 L 0 5 L -6.5 8.5 L -4.5 1.7 L -10 -3.1 L -3 -3.2 Z" fill="none" stroke="#2280c3" stroke-width="1.2"/><text x="279" y="352.4" text-anchor="middle" font-family="Helvetica, Arial, sans-serif" font-size="9" fill="#c7dacc" opacity="0.6">5</text><rect x="314.1" y="302.6" width="37.8" height="37.8" fill="white" stroke="#c7dacc" stroke-width="1.2" rx="6" ry="6"/><path transform="translate(333,321.5)" d="M 0 -10 L 3 -3.2 L 10 -3.1 L 4.5 1.7 L 6.5 8.5 L 0 5 L -6.5 8.5 L -4.5 1.7 L -10 -3.1 L -3 -3.2 Z" fill="none" stroke="#2280c3" stroke-width="1.2"/><text x="333" y="352.4" text-anchor="middle" font-family="Helvetica, Arial, sans-serif" font-size="9" fill="#c7dacc" opacity="0.6">6</text><rect x="368.1" y="302.6" width="37.8" height="37.8" fill="white" stroke="#c7dacc" stroke-width="1.2" rx="6" ry="6"/><path transform="translate(387,321.5)" d="M 0 -10 L 3 -3.2 L 10 -3.1 L 4.5 1.7 L 6.5 8.5 L 0 5 L -6.5 8.5 L -4.5 1.7 L -10 -3.1 L -3 -3.2 Z" fill="none" stroke="#2280c3" stroke-width="1.2"/><text x="387" y="352.4" text-anchor="middle" font-family="Helvetica, Arial, sans-serif" font-size="9" fill="#c7dacc" opacity="0.6">7</text><rect x="422.1" y="302.6" width="37.8" height="37.8" fill="white" stroke="#c7dacc" stroke-width="1.2" rx="6" ry="6"/><path transform="translate(441,321.5)" d="M 0 -10 L 3 -3.2 L 10 -3.1 L 4.5 1.7 L 6.5 8.5 L 0 5 L -6.5 8.5 L -4.5 1.7 L -10 -3.1 L -3 -3.2 Z" fill="none" stroke="#2280c3" stroke-width="1.2"/><text x="441" y="352.4" text-anchor="middle" font-family="Helvetica, Arial, sans-serif" font-size="9" fill="#c7dacc" opacity="0.6">8</text><rect x="476.1" y="302.6" width="37.8" height="37.8" fill="white" stroke="#c7dacc" stroke-width="1.2" rx="6" ry="6"/><path transform="translate(495,321.5)" d="M 0 -10 L 3 -3.2 L 10 -3.1 L 4.5 1.7 L 6.5 8.5 L 0 5 L -6.5 8.5 L -4.5 1.7 L -10 -3.1 L -3 -3.2 Z" fill="none" stroke="#2280c3" stroke-width="1.2"/><text x="495" y="352.4" text-anchor="middle" font-family="Helvetica, Arial, sans-serif" font-size="9" fill="#c7dacc" opacity="0.6">9</text><rect x="530.1" y="302.6" width="37.8" height="37.8" fill="white" stroke="#c7dacc" stroke-width="1.2" rx="6" ry="6"/><path transform="translate(549,321.5)" d="M 0 -10 L 3 -3.2 L 10 -3.1 L 4.5 1.7 L 6.5 8.5 L 0 5 L -6.5 8.5 L -4.5 1.7 L -10 -3.1 L -3 -3.2 Z" fill="none" stroke="#2280c3" stroke-width="1.2"/><text x="549" y="352.4" text-anchor="middle" font-family="Helvetica, Arial, sans-serif" font-size="9" fill="#c7dacc" opacity="0.6">10</text><rect x="44.1" y="545.6" width="37.8" height="37.8" fill="white" stroke="#c7dacc" stroke-width="1.2" rx="6" ry="6"/><path transform="translate(63,564.5)" d="M 0 -10 L 3 -3.2 L 10 -3.1 L 4.5 1.7 L 6.5 8.5 L 0 5 L -6.5 8.5 L -4.5 1.7 L -10 -3.1 L -3 -3.2 Z" fill="none" stroke="#2280c3" stroke-width="1.2"/><text x="63" y="595.4" text-anchor="middle" font-family="Helvetica, Arial, sans-serif" font-size="9" fill="#c7dacc" opacity="0.6">11</text><rect x="98.1" y="545.6" width="37.8" height="37.8" fill="white" stroke="#c7dacc" stroke-width="1.2" rx="6" ry="6"/><path transform="translate(117,564.5)" d="M 0 -10 L 3 -3.2 L 10 -3.1 L 4.5 1.7 L 6.5 8.5 L 0 5 L -6.5 8.5 L -4.5 1.7 L -10 -3.1 L -3 -3.2 Z" fill="none" stroke="#2280c3" stroke-width="1.2"/><text x="117" y="595.4" text-anchor="middle" font-family="Helvetica, Arial, sans-serif" font-size="9" fill="#c7dacc" opacity="0.6">12</text><rect x="152.1" y="545.6" width="37.8" height="37.8" fill="white" stroke="#c7dacc" stroke-width="1.2" rx="6" ry="6"/><path transform="translate(171,564.5)" d="M 0 -10 L 3 -3.2 L 10 -3.1 L 4.5 1.7 L 6.5 8.5 L 0 5 L -6.5 8.5 L -4.5 1.7 L -10 -3.1 L -3 -3.2 Z" fill="none" stroke="#2280c3" stroke-width="1.2"/><text x="171" y="595.4" text-anchor="middle" font-family="Helvetica, Arial, sans-serif" font-size="9" fill="#c7dacc" opacity="0.6">13</text><rect x="206.1" y="545.6" width="37.8" height="37.8" fill="white" stroke="#c7dacc" stroke-width="1.2" rx="6" ry="6"/><path transform="translate(225,564.5)" d="M 0 -10 L 3 -3.2 L 10 -3.1 L 4.5 1.7 L 6.5 8.5 L 0 5 L -6.5 8.5 L -4.5 1.7 L -10 -3.1 L -3 -3.2 Z" fill="none" stroke="#2280c3" stroke-width="1.2"/><text x="225" y="595.4" text-anchor="middle" font-family="Helvetica, Arial, sans-serif" font-size="9" fill="#c7dacc" opacity="0.6">14</text><rect x="260.1" y="545.6" width="37.8" height="37.8" fill="white" stroke="#c7dacc" stroke-width="1.2" rx="6" ry="6"/><path transform="translate(279,564.5)" d="M 0 -10 L 3 -3.2 L 10 -3.1 L 4.5 1.7 L 6.5 8.5 L 0 5 L -6.5 8.5 L -4.5 1.7 L -10 -3.1 L -3 -3.2 Z" fill="none" stroke="#2280c3" stroke-width="1.2"/><text x="279" y="595.4" text-anchor="middle" font-family="Helvetica, Arial, sans-serif" font-size="9" fill="#c7dacc" opacity="0.6">15</text><rect x="314.1" y="545.6" width="37.8" height="37.8" fill="white" stroke="#c7dacc" stroke-width="1.2" rx="6" ry="6"/><path transform="translate(333,564.5)" d="M 0 -10 L 3 -3.2 L 10 -3.1 L 4.5 1.7 L 6.5 8.5 L 0 5 L -6.5 8.5 L -4.5 1.7 L -10 -3.1 L -3 -3.2 Z" fill="none" stroke="#2280c3" stroke-width="1.2"/><text x="333" y="595.4" text-anchor="middle" font-family="Helvetica, Arial, sans-serif" font-size="9" fill="#c7dacc" opacity="0.6">16</text><rect x="368.1" y="545.6" width="37.8" height="37.8" fill="white" stroke="#c7dacc" stroke-width="1.2" rx="6" ry="6"/><path transform="translate(387,564.5)" d="M 0 -10 L 3 -3.2 L 10 -3.1 L 4.5 1.7 L 6.5 8.5 L 0 5 L -6.5 8.5 L -4.5 1.7 L -10 -3.1 L -3 -3.2 Z" fill="none" stroke="#2280c3" stroke-width="1.2"/><text x="387" y="595.4" text-anchor="middle" font-family="Helvetica, Arial, sans-serif" font-size="9" fill="#c7dacc" opacity="0.6">17</text><rect x="422.1" y="545.6" width="37.8" height="37.8" fill="white" stroke="#c7dacc" stroke-width="1.2" rx="6" ry="6"/><path transform="translate(441,564.5)" d="M 0 -10 L 3 -3.2 L 10 -3.1 L 4.5 1.7 L 6.5 8.5 L 0 5 L -6.5 8.5 L -4.5 1.7 L -10 -3.1 L -3 -3.2 Z" fill="none" stroke="#2280c3" stroke-width="1.2"/><text x="441" y="595.4" text-anchor="middle" font-family="Helvetica, Arial, sans-serif" font-size="9" fill="#c7dacc" opacity="0.6">18</text><rect x="476.1" y="545.6" width="37.8" height="37.8" fill="white" stroke="#c7dacc" stroke-width="1.2" rx="6" ry="6"/><path transform="translate(495,564.5)" d="M 0 -10 L 3 -3.2 L 10 -3.1 L 4.5 1.7 L 6.5 8.5 L 0 5 L -6.5 8.5 L -4.5 1.7 L -10 -3.1 L -3 -3.2 Z" fill="none" stroke="#2280c3" stroke-width="1.2"/><text x="495" y="595.4" text-anchor="middle" font-family="Helvetica, Arial, sans-serif" font-size="9" fill="#c7dacc" opacity="0.6">19</text><rect x="530.1" y="545.6" width="37.8" height="37.8" fill="white" stroke="#c7dacc" stroke-width="1.2" rx="6" ry="6"/><path transform="translate(549,564.5)" d="M 0 -10 L 3 -3.2 L 10 -3.1 L 4.5 1.7 L 6.5 8.5 L 0 5 L -6.5 8.5 L -4.5 1.7 L -10 -3.1 L -3 -3.2 Z" fill="none" stroke="#2280c3" stroke-width="1.2"/><text x="549" y="595.4" text-anchor="middle" font-family="Helvetica, Arial, sans-serif" font-size="9" fill="#c7dacc" opacity="0.6">20</text><text x="306" y="748" text-anchor="middle" font-family="Helvetica, Arial, sans-serif" font-size="9" fill="#c7dacc" opacity="0.7">Chart template by Flinkis — printablechorechart.com  •  CC-BY-4.0</text></svg>