<svg xmlns="http://www.w3.org/2000/svg" viewBox="0 0 612 792" width="612" height="792"><rect x="36" y="36" width="540" height="72" fill="#96b239" rx="8" ry="8"/><text x="306" y="68" text-anchor="middle" font-family="Helvetica, Arial, sans-serif" font-size="24" font-weight="700" fill="#ffffff">Noble Holiday Monthly Planner</text><text x="306" y="92" text-anchor="middle" font-family="Helvetica, Arial, sans-serif" font-size="12" fill="#ffffff" opacity="0.85">Monthly Calendar</text><rect x="36" y="120" width="540" height="28" fill="#6fbb5d" opacity="0.18" rx="4" ry="4"/><text x="52" y="139" font-family="Helvetica, Arial, sans-serif" font-size="13" font-weight="600" fill="#96b239">Month:</text><line x1="106" y1="142" x2="560" y2="142" stroke="#d5dac7" stroke-width="1"/><rect x="36" y="152" width="77.14285714285714" height="28" fill="#96b239" opacity="0.85"/><text x="74.57142857142857" y="171" text-anchor="middle" font-family="Helvetica, Arial, sans-serif" font-size="12" font-weight="700" fill="#ffffff">S</text><rect x="113.14285714285714" y="152" width="77.14285714285714" height="28" fill="#96b239" opacity="0.85"/><text x="151.71428571428572" y="171" text-anchor="middle" font-family="Helvetica, Arial, sans-serif" font-size="12" font-weight="700" fill="#ffffff">M</text><rect x="190.28571428571428" y="152" width="77.14285714285714" height="28" fill="#96b239" opacity="0.85"/><text x="228.85714285714283" y="171" text-anchor="middle" font-family="Helvetica, Arial, sans-serif" font-size="12" font-weight="700" fill="#ffffff">T</text><rect x="267.42857142857144" y="152" width="77.14285714285714" height="28" fill="#96b239" opacity="0.85"/><text x="306" y="171" text-anchor="middle" font-family="Helvetica, Arial, sans-serif" font-size="12" font-weight="700" fill="#ffffff">W</text><rect x="344.57142857142856" y="152" width="77.14285714285714" height="28" fill="#96b239" opacity="0.85"/><text x="383.1428571428571" y="171" text-anchor="middle" font-family="Helvetica, Arial, sans-serif" font-size="12" font-weight="700" fill="#ffffff">T</text><rect x="421.71428571428567" y="152" width="77.14285714285714" height="28" fill="#96b239" opacity="0.85"/><text x="460.2857142857143" y="171" text-anchor="middle" font-family="Helvetica, Arial, sans-serif" font-size="12" font-weight="700" fill="#ffffff">F</text><rect x="498.85714285714283" y="152" width="77.14285714285714" height="28" fill="#96b239" opacity="0.85"/><text x="537.4285714285713" y="171" text-anchor="middle" font-family="Helvetica, Arial, sans-serif" font-size="12" font-weight="700" fill="#ffffff">S</text><rect x="36" y="180" width="77.14285714285714" height="89.33333333333333" fill="#f7f8f6" stroke="#d5dac7" stroke-width="0.6"/><rect x="41" y="185" width="18" height="14" fill="none" stroke="#d5dac7" stroke-width="0.8" rx="2" ry="2"/><rect x="113.14285714285714" y="180" width="77.14285714285714" height="89.33333333333333" fill="#e3e4dd" stroke="#d5dac7" stroke-width="0.6"/><rect x="118.14285714285714" y="185" width="18" height="14" fill="none" stroke="#d5dac7" stroke-width="0.8" rx="2" ry="2"/><rect x="190.28571428571428" y="180" width="77.14285714285714" height="89.33333333333333" fill="#f7f8f6" stroke="#d5dac7" stroke-width="0.6"/><rect x="195.28571428571428" y="185" width="18" height="14" fill="none" stroke="#d5dac7" stroke-width="0.8" rx="2" ry="2"/><rect x="267.42857142857144" y="180" width="77.14285714285714" height="89.33333333333333" fill="#e3e4dd" stroke="#d5dac7" stroke-width="0.6"/><rect x="272.42857142857144" y="185" width="18" height="14" fill="none" stroke="#d5dac7" stroke-width="0.8" rx="2" ry="2"/><rect x="344.57142857142856" y="180" width="77.14285714285714" height="89.33333333333333" fill="#f7f8f6" stroke="#d5dac7" stroke-width="0.6"/><rect x="349.57142857142856" y="185" width="18" height="14" fill="none" stroke="#d5dac7" stroke-width="0.8" rx="2" ry="2"/><rect x="421.71428571428567" y="180" width="77.14285714285714" height="89.33333333333333" fill="#e3e4dd" stroke="#d5dac7" stroke-width="0.6"/><rect x="426.71428571428567" y="185" width="18" height="14" fill="none" stroke="#d5dac7" stroke-width="0.8" rx="2" ry="2"/><rect x="498.85714285714283" y="180" width="77.14285714285714" height="89.33333333333333" fill="#f7f8f6" stroke="#d5dac7" stroke-width="0.6"/><rect x="503.85714285714283" y="185" width="18" height="14" fill="none" stroke="#d5dac7" stroke-width="0.8" rx="2" ry="2"/><rect x="36" y="269.3333333333333" width="77.14285714285714" height="89.33333333333333" fill="#e3e4dd" stroke="#d5dac7" stroke-width="0.6"/><rect x="41" y="274.3333333333333" width="18" height="14" fill="none" stroke="#d5dac7" stroke-width="0.8" rx="2" ry="2"/><rect x="113.14285714285714" y="269.3333333333333" width="77.14285714285714" height="89.33333333333333" fill="#f7f8f6" stroke="#d5dac7" stroke-width="0.6"/><rect x="118.14285714285714" y="274.3333333333333" width="18" height="14" fill="none" stroke="#d5dac7" stroke-width="0.8" rx="2" ry="2"/><rect x="190.28571428571428" y="269.3333333333333" width="77.14285714285714" height="89.33333333333333" fill="#e3e4dd" stroke="#d5dac7" stroke-width="0.6"/><rect x="195.28571428571428" y="274.3333333333333" width="18" height="14" fill="none" stroke="#d5dac7" stroke-width="0.8" rx="2" ry="2"/><rect x="267.42857142857144" y="269.3333333333333" width="77.14285714285714" height="89.33333333333333" fill="#f7f8f6" stroke="#d5dac7" stroke-width="0.6"/><rect x="272.42857142857144" y="274.3333333333333" width="18" height="14" fill="none" stroke="#d5dac7" stroke-width="0.8" rx="2" ry="2"/><rect x="344.57142857142856" y="269.3333333333333" width="77.14285714285714" height="89.33333333333333" fill="#e3e4dd" stroke="#d5dac7" stroke-width="0.6"/><rect x="349.57142857142856" y="274.3333333333333" width="18" height="14" fill="none" stroke="#d5dac7" stroke-width="0.8" rx="2" ry="2"/><rect x="421.71428571428567" y="269.3333333333333" width="77.14285714285714" height="89.33333333333333" fill="#f7f8f6" stroke="#d5dac7" stroke-width="0.6"/><rect x="426.71428571428567" y="274.3333333333333" width="18" height="14" fill="none" stroke="#d5dac7" stroke-width="0.8" rx="2" ry="2"/><rect x="498.85714285714283" y="269.3333333333333" width="77.14285714285714" height="89.33333333333333" fill="#e3e4dd" stroke="#d5dac7" stroke-width="0.6"/><rect x="503.85714285714283" y="274.3333333333333" width="18" height="14" fill="none" stroke="#d5dac7" stroke-width="0.8" rx="2" ry="2"/><rect x="36" y="358.66666666666663" width="77.14285714285714" height="89.33333333333333" fill="#f7f8f6" stroke="#d5dac7" stroke-width="0.6"/><rect x="41" y="363.66666666666663" width="18" height="14" fill="none" stroke="#d5dac7" stroke-width="0.8" rx="2" ry="2"/><rect x="113.14285714285714" y="358.66666666666663" width="77.14285714285714" height="89.33333333333333" fill="#e3e4dd" stroke="#d5dac7" stroke-width="0.6"/><rect x="118.14285714285714" y="363.66666666666663" width="18" height="14" fill="none" stroke="#d5dac7" stroke-width="0.8" rx="2" ry="2"/><rect x="190.28571428571428" y="358.66666666666663" width="77.14285714285714" height="89.33333333333333" fill="#f7f8f6" stroke="#d5dac7" stroke-width="0.6"/><rect x="195.28571428571428" y="363.66666666666663" width="18" height="14" fill="none" stroke="#d5dac7" stroke-width="0.8" rx="2" ry="2"/><rect x="267.42857142857144" y="358.66666666666663" width="77.14285714285714" height="89.33333333333333" fill="#e3e4dd" stroke="#d5dac7" stroke-width="0.6"/><rect x="272.42857142857144" y="363.66666666666663" width="18" height="14" fill="none" stroke="#d5dac7" stroke-width="0.8" rx="2" ry="2"/><rect x="344.57142857142856" y="358.66666666666663" width="77.14285714285714" height="89.33333333333333" fill="#f7f8f6" stroke="#d5dac7" stroke-width="0.6"/><rect x="349.57142857142856" y="363.66666666666663" width="18" height="14" fill="none" stroke="#d5dac7" stroke-width="0.8" rx="2" ry="2"/><rect x="421.71428571428567" y="358.66666666666663" width="77.14285714285714" height="89.33333333333333" fill="#e3e4dd" stroke="#d5dac7" stroke-width="0.6"/><rect x="426.71428571428567" y="363.66666666666663" width="18" height="14" fill="none" stroke="#d5dac7" stroke-width="0.8" rx="2" ry="2"/><rect x="498.85714285714283" y="358.66666666666663" width="77.14285714285714" height="89.33333333333333" fill="#f7f8f6" stroke="#d5dac7" stroke-width="0.6"/><rect x="503.85714285714283" y="363.66666666666663" width="18" height="14" fill="none" stroke="#d5dac7" stroke-width="0.8" rx="2" ry="2"/><rect x="36" y="448" width="77.14285714285714" height="89.33333333333333" fill="#e3e4dd" stroke="#d5dac7" stroke-width="0.6"/><rect x="41" y="453" width="18" height="14" fill="none" stroke="#d5dac7" stroke-width="0.8" rx="2" ry="2"/><rect x="113.14285714285714" y="448" width="77.14285714285714" height="89.33333333333333" fill="#f7f8f6" stroke="#d5dac7" stroke-width="0.6"/><rect x="118.14285714285714" y="453" width="18" height="14" fill="none" stroke="#d5dac7" stroke-width="0.8" rx="2" ry="2"/><rect x="190.28571428571428" y="448" width="77.14285714285714" height="89.33333333333333" fill="#e3e4dd" stroke="#d5dac7" stroke-width="0.6"/><rect x="195.28571428571428" y="453" width="18" height="14" fill="none" stroke="#d5dac7" stroke-width="0.8" rx="2" ry="2"/><rect x="267.42857142857144" y="448" width="77.14285714285714" height="89.33333333333333" fill="#f7f8f6" stroke="#d5dac7" stroke-width="0.6"/><rect x="272.42857142857144" y="453" width="18" height="14" fill="none" stroke="#d5dac7" stroke-width="0.8" rx="2" ry="2"/><rect x="344.57142857142856" y="448" width="77.14285714285714" height="89.33333333333333" fill="#e3e4dd" stroke="#d5dac7" stroke-width="0.6"/><rect x="349.57142857142856" y="453" width="18" height="14" fill="none" stroke="#d5dac7" stroke-width="0.8" rx="2" ry="2"/><rect x="421.71428571428567" y="448" width="77.14285714285714" height="89.33333333333333" fill="#f7f8f6" stroke="#d5dac7" stroke-width="0.6"/><rect x="426.71428571428567" y="453" width="18" height="14" fill="none" stroke="#d5dac7" stroke-width="0.8" rx="2" ry="2"/><rect x="498.85714285714283" y="448" width="77.14285714285714" height="89.33333333333333" fill="#e3e4dd" stroke="#d5dac7" stroke-width="0.6"/><rect x="503.85714285714283" y="453" width="18" height="14" fill="none" stroke="#d5dac7" stroke-width="0.8" rx="2" ry="2"/><rect x="36" y="537.3333333333333" width="77.14285714285714" height="89.33333333333333" fill="#f7f8f6" stroke="#d5dac7" stroke-width="0.6"/><rect x="41" y="542.3333333333333" width="18" height="14" fill="none" stroke="#d5dac7" stroke-width="0.8" rx="2" ry="2"/><rect x="113.14285714285714" y="537.3333333333333" width="77.14285714285714" height="89.33333333333333" fill="#e3e4dd" stroke="#d5dac7" stroke-width="0.6"/><rect x="118.14285714285714" y="542.3333333333333" width="18" height="14" fill="none" stroke="#d5dac7" stroke-width="0.8" rx="2" ry="2"/><rect x="190.28571428571428" y="537.3333333333333" width="77.14285714285714" height="89.33333333333333" fill="#f7f8f6" stroke="#d5dac7" stroke-width="0.6"/><rect x="195.28571428571428" y="542.3333333333333" width="18" height="14" fill="none" stroke="#d5dac7" stroke-width="0.8" rx="2" ry="2"/><rect x="267.42857142857144" y="537.3333333333333" width="77.14285714285714" height="89.33333333333333" fill="#e3e4dd" stroke="#d5dac7" stroke-width="0.6"/><rect x="272.42857142857144" y="542.3333333333333" width="18" height="14" fill="none" stroke="#d5dac7" stroke-width="0.8" rx="2" ry="2"/><rect x="344.57142857142856" y="537.3333333333333" width="77.14285714285714" height="89.33333333333333" fill="#f7f8f6" stroke="#d5dac7" stroke-width="0.6"/><rect x="349.57142857142856" y="542.3333333333333" width="18" height="14" fill="none" stroke="#d5dac7" stroke-width="0.8" rx="2" ry="2"/><rect x="421.71428571428567" y="537.3333333333333" width="77.14285714285714" height="89.33333333333333" fill="#e3e4dd" stroke="#d5dac7" stroke-width="0.6"/><rect x="426.71428571428567" y="542.3333333333333" width="18" height="14" fill="none" stroke="#d5dac7" stroke-width="0.8" rx="2" ry="2"/><rect x="498.85714285714283" y="537.3333333333333" width="77.14285714285714" height="89.33333333333333" fill="#f7f8f6" stroke="#d5dac7" stroke-width="0.6"/><rect x="503.85714285714283" y="542.3333333333333" width="18" height="14" fill="none" stroke="#d5dac7" stroke-width="0.8" rx="2" ry="2"/><rect x="36" y="626.6666666666666" width="77.14285714285714" height="89.33333333333333" fill="#e3e4dd" stroke="#d5dac7" stroke-width="0.6"/><rect x="41" y="631.6666666666666" width="18" height="14" fill="none" stroke="#d5dac7" stroke-width="0.8" rx="2" ry="2"/><rect x="113.14285714285714" y="626.6666666666666" width="77.14285714285714" height="89.33333333333333" fill="#f7f8f6" stroke="#d5dac7" stroke-width="0.6"/><rect x="118.14285714285714" y="631.6666666666666" width="18" height="14" fill="none" stroke="#d5dac7" stroke-width="0.8" rx="2" ry="2"/><rect x="190.28571428571428" y="626.6666666666666" width="77.14285714285714" height="89.33333333333333" fill="#e3e4dd" stroke="#d5dac7" stroke-width="0.6"/><rect x="195.28571428571428" y="631.6666666666666" width="18" height="14" fill="none" stroke="#d5dac7" stroke-width="0.8" rx="2" ry="2"/><rect x="267.42857142857144" y="626.6666666666666" width="77.14285714285714" height="89.33333333333333" fill="#f7f8f6" stroke="#d5dac7" stroke-width="0.6"/><rect x="272.42857142857144" y="631.6666666666666" width="18" height="14" fill="none" stroke="#d5dac7" stroke-width="0.8" rx="2" ry="2"/><rect x="344.57142857142856" y="626.6666666666666" width="77.14285714285714" height="89.33333333333333" fill="#e3e4dd" stroke="#d5dac7" stroke-width="0.6"/><rect x="349.57142857142856" y="631.6666666666666" width="18" height="14" fill="none" stroke="#d5dac7" stroke-width="0.8" rx="2" ry="2"/><rect x="421.71428571428567" y="626.6666666666666" width="77.14285714285714" height="89.33333333333333" fill="#f7f8f6" stroke="#d5dac7" stroke-width="0.6"/><rect x="426.71428571428567" y="631.6666666666666" width="18" height="14" fill="none" stroke="#d5dac7" stroke-width="0.8" rx="2" ry="2"/><rect x="498.85714285714283" y="626.6666666666666" width="77.14285714285714" height="89.33333333333333" fill="#e3e4dd" stroke="#d5dac7" stroke-width="0.6"/><rect x="503.85714285714283" y="631.6666666666666" width="18" height="14" fill="none" stroke="#d5dac7" stroke-width="0.8" rx="2" ry="2"/><rect x="36" y="152" width="540" height="564" fill="none" stroke="#d5dac7" stroke-width="1.2" rx="4" ry="4"/><text x="306" y="748" text-anchor="middle" font-family="Helvetica, Arial, sans-serif" font-size="9" fill="#d5dac7" opacity="0.7">Chart template by Flinkis — printablechorechart.com  •  CC-BY-4.0</text></svg>