<svg xmlns="http://www.w3.org/2000/svg" viewBox="0 0 612 792" width="612" height="792"><rect x="36" y="36" width="540" height="72" fill="#5b3ed2" rx="8" ry="8"/><text x="306" y="68" text-anchor="middle" font-family="Helvetica, Arial, sans-serif" font-size="24" font-weight="700" fill="#ffffff">Peaceful Holiday Star Board</text><text x="306" y="92" text-anchor="middle" font-family="Helvetica, Arial, sans-serif" font-size="12" fill="#ffffff" opacity="0.85">Star Chart</text><rect x="36" y="120" width="540" height="32" fill="#c55399" opacity="0.18" rx="4" ry="4"/><text x="306" y="141" text-anchor="middle" font-family="Helvetica, Arial, sans-serif" font-size="12" font-weight="600" fill="#5b3ed2">Earn 10 stars to unlock your reward!</text><rect x="36" y="160" width="540" height="107.2" fill="#f8f8fa"/><path transform="translate(205.5,213.6)" d="M 0 -8 L 2.4 -2.6 L 8 -2.5 L 3.6 1.4 L 5.2 6.8 L 0 4 L -5.2 6.8 L -3.6 1.4 L -8 -2.5 L -2.4 -2.6 Z" fill="none" stroke="#c32285" stroke-width="1"/><path transform="translate(244.5,213.6)" d="M 0 -8 L 2.4 -2.6 L 8 -2.5 L 3.6 1.4 L 5.2 6.8 L 0 4 L -5.2 6.8 L -3.6 1.4 L -8 -2.5 L -2.4 -2.6 Z" fill="none" stroke="#c32285" stroke-width="1"/><path transform="translate(283.5,213.6)" d="M 0 -8 L 2.4 -2.6 L 8 -2.5 L 3.6 1.4 L 5.2 6.8 L 0 4 L -5.2 6.8 L -3.6 1.4 L -8 -2.5 L -2.4 -2.6 Z" fill="none" stroke="#c32285" stroke-width="1"/><path transform="translate(322.5,213.6)" d="M 0 -8 L 2.4 -2.6 L 8 -2.5 L 3.6 1.4 L 5.2 6.8 L 0 4 L -5.2 6.8 L -3.6 1.4 L -8 -2.5 L -2.4 -2.6 Z" fill="none" stroke="#c32285" stroke-width="1"/><path transform="translate(361.5,213.6)" d="M 0 -8 L 2.4 -2.6 L 8 -2.5 L 3.6 1.4 L 5.2 6.8 L 0 4 L -5.2 6.8 L -3.6 1.4 L -8 -2.5 L -2.4 -2.6 Z" fill="none" stroke="#c32285" stroke-width="1"/><path transform="translate(400.5,213.6)" d="M 0 -8 L 2.4 -2.6 L 8 -2.5 L 3.6 1.4 L 5.2 6.8 L 0 4 L -5.2 6.8 L -3.6 1.4 L -8 -2.5 L -2.4 -2.6 Z" fill="none" stroke="#c32285" stroke-width="1"/><path transform="translate(439.5,213.6)" d="M 0 -8 L 2.4 -2.6 L 8 -2.5 L 3.6 1.4 L 5.2 6.8 L 0 4 L -5.2 6.8 L -3.6 1.4 L -8 -2.5 L -2.4 -2.6 Z" fill="none" stroke="#c32285" stroke-width="1"/><path transform="translate(478.5,213.6)" d="M 0 -8 L 2.4 -2.6 L 8 -2.5 L 3.6 1.4 L 5.2 6.8 L 0 4 L -5.2 6.8 L -3.6 1.4 L -8 -2.5 L -2.4 -2.6 Z" fill="none" stroke="#c32285" stroke-width="1"/><path transform="translate(517.5,213.6)" d="M 0 -8 L 2.4 -2.6 L 8 -2.5 L 3.6 1.4 L 5.2 6.8 L 0 4 L -5.2 6.8 L -3.6 1.4 L -8 -2.5 L -2.4 -2.6 Z" fill="none" stroke="#c32285" stroke-width="1"/><path transform="translate(556.5,213.6)" d="M 0 -8 L 2.4 -2.6 L 8 -2.5 L 3.6 1.4 L 5.2 6.8 L 0 4 L -5.2 6.8 L -3.6 1.4 L -8 -2.5 L -2.4 -2.6 Z" fill="none" stroke="#c32285" stroke-width="1"/><rect x="36" y="267.2" width="540" height="107.2" fill="#e0dee5"/><path transform="translate(205.5,320.8)" d="M 0 -8 L 2.4 -2.6 L 8 -2.5 L 3.6 1.4 L 5.2 6.8 L 0 4 L -5.2 6.8 L -3.6 1.4 L -8 -2.5 L -2.4 -2.6 Z" fill="none" stroke="#c32285" stroke-width="1"/><path transform="translate(244.5,320.8)" d="M 0 -8 L 2.4 -2.6 L 8 -2.5 L 3.6 1.4 L 5.2 6.8 L 0 4 L -5.2 6.8 L -3.6 1.4 L -8 -2.5 L -2.4 -2.6 Z" fill="none" stroke="#c32285" stroke-width="1"/><path transform="translate(283.5,320.8)" d="M 0 -8 L 2.4 -2.6 L 8 -2.5 L 3.6 1.4 L 5.2 6.8 L 0 4 L -5.2 6.8 L -3.6 1.4 L -8 -2.5 L -2.4 -2.6 Z" fill="none" stroke="#c32285" stroke-width="1"/><path transform="translate(322.5,320.8)" d="M 0 -8 L 2.4 -2.6 L 8 -2.5 L 3.6 1.4 L 5.2 6.8 L 0 4 L -5.2 6.8 L -3.6 1.4 L -8 -2.5 L -2.4 -2.6 Z" fill="none" stroke="#c32285" stroke-width="1"/><path transform="translate(361.5,320.8)" d="M 0 -8 L 2.4 -2.6 L 8 -2.5 L 3.6 1.4 L 5.2 6.8 L 0 4 L -5.2 6.8 L -3.6 1.4 L -8 -2.5 L -2.4 -2.6 Z" fill="none" stroke="#c32285" stroke-width="1"/><path transform="translate(400.5,320.8)" d="M 0 -8 L 2.4 -2.6 L 8 -2.5 L 3.6 1.4 L 5.2 6.8 L 0 4 L -5.2 6.8 L -3.6 1.4 L -8 -2.5 L -2.4 -2.6 Z" fill="none" stroke="#c32285" stroke-width="1"/><path transform="translate(439.5,320.8)" d="M 0 -8 L 2.4 -2.6 L 8 -2.5 L 3.6 1.4 L 5.2 6.8 L 0 4 L -5.2 6.8 L -3.6 1.4 L -8 -2.5 L -2.4 -2.6 Z" fill="none" stroke="#c32285" stroke-width="1"/><path transform="translate(478.5,320.8)" d="M 0 -8 L 2.4 -2.6 L 8 -2.5 L 3.6 1.4 L 5.2 6.8 L 0 4 L -5.2 6.8 L -3.6 1.4 L -8 -2.5 L -2.4 -2.6 Z" fill="none" stroke="#c32285" stroke-width="1"/><path transform="translate(517.5,320.8)" d="M 0 -8 L 2.4 -2.6 L 8 -2.5 L 3.6 1.4 L 5.2 6.8 L 0 4 L -5.2 6.8 L -3.6 1.4 L -8 -2.5 L -2.4 -2.6 Z" fill="none" stroke="#c32285" stroke-width="1"/><path transform="translate(556.5,320.8)" d="M 0 -8 L 2.4 -2.6 L 8 -2.5 L 3.6 1.4 L 5.2 6.8 L 0 4 L -5.2 6.8 L -3.6 1.4 L -8 -2.5 L -2.4 -2.6 Z" fill="none" stroke="#c32285" stroke-width="1"/><rect x="36" y="374.4" width="540" height="107.2" fill="#f8f8fa"/><path transform="translate(205.5,428)" d="M 0 -8 L 2.4 -2.6 L 8 -2.5 L 3.6 1.4 L 5.2 6.8 L 0 4 L -5.2 6.8 L -3.6 1.4 L -8 -2.5 L -2.4 -2.6 Z" fill="none" stroke="#c32285" stroke-width="1"/><path transform="translate(244.5,428)" d="M 0 -8 L 2.4 -2.6 L 8 -2.5 L 3.6 1.4 L 5.2 6.8 L 0 4 L -5.2 6.8 L -3.6 1.4 L -8 -2.5 L -2.4 -2.6 Z" fill="none" stroke="#c32285" stroke-width="1"/><path transform="translate(283.5,428)" d="M 0 -8 L 2.4 -2.6 L 8 -2.5 L 3.6 1.4 L 5.2 6.8 L 0 4 L -5.2 6.8 L -3.6 1.4 L -8 -2.5 L -2.4 -2.6 Z" fill="none" stroke="#c32285" stroke-width="1"/><path transform="translate(322.5,428)" d="M 0 -8 L 2.4 -2.6 L 8 -2.5 L 3.6 1.4 L 5.2 6.8 L 0 4 L -5.2 6.8 L -3.6 1.4 L -8 -2.5 L -2.4 -2.6 Z" fill="none" stroke="#c32285" stroke-width="1"/><path transform="translate(361.5,428)" d="M 0 -8 L 2.4 -2.6 L 8 -2.5 L 3.6 1.4 L 5.2 6.8 L 0 4 L -5.2 6.8 L -3.6 1.4 L -8 -2.5 L -2.4 -2.6 Z" fill="none" stroke="#c32285" stroke-width="1"/><path transform="translate(400.5,428)" d="M 0 -8 L 2.4 -2.6 L 8 -2.5 L 3.6 1.4 L 5.2 6.8 L 0 4 L -5.2 6.8 L -3.6 1.4 L -8 -2.5 L -2.4 -2.6 Z" fill="none" stroke="#c32285" stroke-width="1"/><path transform="translate(439.5,428)" d="M 0 -8 L 2.4 -2.6 L 8 -2.5 L 3.6 1.4 L 5.2 6.8 L 0 4 L -5.2 6.8 L -3.6 1.4 L -8 -2.5 L -2.4 -2.6 Z" fill="none" stroke="#c32285" stroke-width="1"/><path transform="translate(478.5,428)" d="M 0 -8 L 2.4 -2.6 L 8 -2.5 L 3.6 1.4 L 5.2 6.8 L 0 4 L -5.2 6.8 L -3.6 1.4 L -8 -2.5 L -2.4 -2.6 Z" fill="none" stroke="#c32285" stroke-width="1"/><path transform="translate(517.5,428)" d="M 0 -8 L 2.4 -2.6 L 8 -2.5 L 3.6 1.4 L 5.2 6.8 L 0 4 L -5.2 6.8 L -3.6 1.4 L -8 -2.5 L -2.4 -2.6 Z" fill="none" stroke="#c32285" stroke-width="1"/><path transform="translate(556.5,428)" d="M 0 -8 L 2.4 -2.6 L 8 -2.5 L 3.6 1.4 L 5.2 6.8 L 0 4 L -5.2 6.8 L -3.6 1.4 L -8 -2.5 L -2.4 -2.6 Z" fill="none" stroke="#c32285" stroke-width="1"/><rect x="36" y="481.6" width="540" height="107.2" fill="#e0dee5"/><path transform="translate(205.5,535.2)" d="M 0 -8 L 2.4 -2.6 L 8 -2.5 L 3.6 1.4 L 5.2 6.8 L 0 4 L -5.2 6.8 L -3.6 1.4 L -8 -2.5 L -2.4 -2.6 Z" fill="none" stroke="#c32285" stroke-width="1"/><path transform="translate(244.5,535.2)" d="M 0 -8 L 2.4 -2.6 L 8 -2.5 L 3.6 1.4 L 5.2 6.8 L 0 4 L -5.2 6.8 L -3.6 1.4 L -8 -2.5 L -2.4 -2.6 Z" fill="none" stroke="#c32285" stroke-width="1"/><path transform="translate(283.5,535.2)" d="M 0 -8 L 2.4 -2.6 L 8 -2.5 L 3.6 1.4 L 5.2 6.8 L 0 4 L -5.2 6.8 L -3.6 1.4 L -8 -2.5 L -2.4 -2.6 Z" fill="none" stroke="#c32285" stroke-width="1"/><path transform="translate(322.5,535.2)" d="M 0 -8 L 2.4 -2.6 L 8 -2.5 L 3.6 1.4 L 5.2 6.8 L 0 4 L -5.2 6.8 L -3.6 1.4 L -8 -2.5 L -2.4 -2.6 Z" fill="none" stroke="#c32285" stroke-width="1"/><path transform="translate(361.5,535.2)" d="M 0 -8 L 2.4 -2.6 L 8 -2.5 L 3.6 1.4 L 5.2 6.8 L 0 4 L -5.2 6.8 L -3.6 1.4 L -8 -2.5 L -2.4 -2.6 Z" fill="none" stroke="#c32285" stroke-width="1"/><path transform="translate(400.5,535.2)" d="M 0 -8 L 2.4 -2.6 L 8 -2.5 L 3.6 1.4 L 5.2 6.8 L 0 4 L -5.2 6.8 L -3.6 1.4 L -8 -2.5 L -2.4 -2.6 Z" fill="none" stroke="#c32285" stroke-width="1"/><path transform="translate(439.5,535.2)" d="M 0 -8 L 2.4 -2.6 L 8 -2.5 L 3.6 1.4 L 5.2 6.8 L 0 4 L -5.2 6.8 L -3.6 1.4 L -8 -2.5 L -2.4 -2.6 Z" fill="none" stroke="#c32285" stroke-width="1"/><path transform="translate(478.5,535.2)" d="M 0 -8 L 2.4 -2.6 L 8 -2.5 L 3.6 1.4 L 5.2 6.8 L 0 4 L -5.2 6.8 L -3.6 1.4 L -8 -2.5 L -2.4 -2.6 Z" fill="none" stroke="#c32285" stroke-width="1"/><path transform="translate(517.5,535.2)" d="M 0 -8 L 2.4 -2.6 L 8 -2.5 L 3.6 1.4 L 5.2 6.8 L 0 4 L -5.2 6.8 L -3.6 1.4 L -8 -2.5 L -2.4 -2.6 Z" fill="none" stroke="#c32285" stroke-width="1"/><path transform="translate(556.5,535.2)" d="M 0 -8 L 2.4 -2.6 L 8 -2.5 L 3.6 1.4 L 5.2 6.8 L 0 4 L -5.2 6.8 L -3.6 1.4 L -8 -2.5 L -2.4 -2.6 Z" fill="none" stroke="#c32285" stroke-width="1"/><rect x="36" y="588.8" width="540" height="107.2" fill="#f8f8fa"/><path transform="translate(205.5,642.4)" d="M 0 -8 L 2.4 -2.6 L 8 -2.5 L 3.6 1.4 L 5.2 6.8 L 0 4 L -5.2 6.8 L -3.6 1.4 L -8 -2.5 L -2.4 -2.6 Z" fill="none" stroke="#c32285" stroke-width="1"/><path transform="translate(244.5,642.4)" d="M 0 -8 L 2.4 -2.6 L 8 -2.5 L 3.6 1.4 L 5.2 6.8 L 0 4 L -5.2 6.8 L -3.6 1.4 L -8 -2.5 L -2.4 -2.6 Z" fill="none" stroke="#c32285" stroke-width="1"/><path transform="translate(283.5,642.4)" d="M 0 -8 L 2.4 -2.6 L 8 -2.5 L 3.6 1.4 L 5.2 6.8 L 0 4 L -5.2 6.8 L -3.6 1.4 L -8 -2.5 L -2.4 -2.6 Z" fill="none" stroke="#c32285" stroke-width="1"/><path transform="translate(322.5,642.4)" d="M 0 -8 L 2.4 -2.6 L 8 -2.5 L 3.6 1.4 L 5.2 6.8 L 0 4 L -5.2 6.8 L -3.6 1.4 L -8 -2.5 L -2.4 -2.6 Z" fill="none" stroke="#c32285" stroke-width="1"/><path transform="translate(361.5,642.4)" d="M 0 -8 L 2.4 -2.6 L 8 -2.5 L 3.6 1.4 L 5.2 6.8 L 0 4 L -5.2 6.8 L -3.6 1.4 L -8 -2.5 L -2.4 -2.6 Z" fill="none" stroke="#c32285" stroke-width="1"/><path transform="translate(400.5,642.4)" d="M 0 -8 L 2.4 -2.6 L 8 -2.5 L 3.6 1.4 L 5.2 6.8 L 0 4 L -5.2 6.8 L -3.6 1.4 L -8 -2.5 L -2.4 -2.6 Z" fill="none" stroke="#c32285" stroke-width="1"/><path transform="translate(439.5,642.4)" d="M 0 -8 L 2.4 -2.6 L 8 -2.5 L 3.6 1.4 L 5.2 6.8 L 0 4 L -5.2 6.8 L -3.6 1.4 L -8 -2.5 L -2.4 -2.6 Z" fill="none" stroke="#c32285" stroke-width="1"/><path transform="translate(478.5,642.4)" d="M 0 -8 L 2.4 -2.6 L 8 -2.5 L 3.6 1.4 L 5.2 6.8 L 0 4 L -5.2 6.8 L -3.6 1.4 L -8 -2.5 L -2.4 -2.6 Z" fill="none" stroke="#c32285" stroke-width="1"/><path transform="translate(517.5,642.4)" d="M 0 -8 L 2.4 -2.6 L 8 -2.5 L 3.6 1.4 L 5.2 6.8 L 0 4 L -5.2 6.8 L -3.6 1.4 L -8 -2.5 L -2.4 -2.6 Z" fill="none" stroke="#c32285" stroke-width="1"/><path transform="translate(556.5,642.4)" d="M 0 -8 L 2.4 -2.6 L 8 -2.5 L 3.6 1.4 L 5.2 6.8 L 0 4 L -5.2 6.8 L -3.6 1.4 L -8 -2.5 L -2.4 -2.6 Z" fill="none" stroke="#c32285" stroke-width="1"/><rect x="36" y="160" width="540" height="536" fill="none" stroke="#cbc7da" stroke-width="1" rx="4" ry="4"/><text x="306" y="748" text-anchor="middle" font-family="Helvetica, Arial, sans-serif" font-size="9" fill="#cbc7da" opacity="0.7">Chart template by Flinkis — printablechorechart.com  •  CC-BY-4.0</text></svg>