<svg xmlns="http://www.w3.org/2000/svg" viewBox="0 0 612 792" width="612" height="792"><rect x="36" y="36" width="540" height="72" fill="#E63950" rx="8" ry="8"/><text x="306" y="68" text-anchor="middle" font-family="Helvetica, Arial, sans-serif" font-size="24" font-weight="700" fill="#FFFFFF">Ribbon Kiss Kitty</text><rect x="36" y="120" width="540" height="28" fill="#FF8FAB" opacity="0.18"/><text x="106" y="139" text-anchor="middle" font-family="Helvetica, Arial, sans-serif" font-size="12" font-weight="600" fill="#E63950">Task</text><text x="204.57142857142858" y="139" text-anchor="middle" font-family="Helvetica, Arial, sans-serif" font-size="12" font-weight="600" fill="#E63950">Mon</text><text x="261.7142857142857" y="139" text-anchor="middle" font-family="Helvetica, Arial, sans-serif" font-size="12" font-weight="600" fill="#E63950">Tue</text><text x="318.8571428571429" y="139" text-anchor="middle" font-family="Helvetica, Arial, sans-serif" font-size="12" font-weight="600" fill="#E63950">Wed</text><text x="376" y="139" text-anchor="middle" font-family="Helvetica, Arial, sans-serif" font-size="12" font-weight="600" fill="#E63950">Thu</text><text x="433.14285714285717" y="139" text-anchor="middle" font-family="Helvetica, Arial, sans-serif" font-size="12" font-weight="600" fill="#E63950">Fri</text><text x="490.2857142857143" y="139" text-anchor="middle" font-family="Helvetica, Arial, sans-serif" font-size="12" font-weight="600" fill="#E63950">Sat</text><text x="547.4285714285714" y="139" text-anchor="middle" font-family="Helvetica, Arial, sans-serif" font-size="12" font-weight="600" fill="#E63950">Sun</text><rect x="36" y="148" width="540" height="80.57142857142857" fill="rgba(255,240,244,0.90)"/><rect x="195.57142857142858" y="179.28571428571428" width="18" height="18" fill="white" stroke="#FFB3C1" stroke-width="1.2" rx="3" ry="3"/><rect x="252.71428571428572" y="179.28571428571428" width="18" height="18" fill="white" stroke="#FFB3C1" stroke-width="1.2" rx="3" ry="3"/><rect x="309.8571428571429" y="179.28571428571428" width="18" height="18" fill="white" stroke="#FFB3C1" stroke-width="1.2" rx="3" ry="3"/><rect x="367" y="179.28571428571428" width="18" height="18" fill="white" stroke="#FFB3C1" stroke-width="1.2" rx="3" ry="3"/><rect x="424.14285714285717" y="179.28571428571428" width="18" height="18" fill="white" stroke="#FFB3C1" stroke-width="1.2" rx="3" ry="3"/><rect x="481.2857142857143" y="179.28571428571428" width="18" height="18" fill="white" stroke="#FFB3C1" stroke-width="1.2" rx="3" ry="3"/><rect x="538.4285714285714" y="179.28571428571428" width="18" height="18" fill="white" stroke="#FFB3C1" stroke-width="1.2" rx="3" ry="3"/><rect x="36" y="228.57142857142856" width="540" height="80.57142857142857" fill="rgba(255,255,255,0.97)"/><rect x="195.57142857142858" y="259.85714285714283" width="18" height="18" fill="white" stroke="#FFB3C1" stroke-width="1.2" rx="3" ry="3"/><rect x="252.71428571428572" y="259.85714285714283" width="18" height="18" fill="white" stroke="#FFB3C1" stroke-width="1.2" rx="3" ry="3"/><rect x="309.8571428571429" y="259.85714285714283" width="18" height="18" fill="white" stroke="#FFB3C1" stroke-width="1.2" rx="3" ry="3"/><rect x="367" y="259.85714285714283" width="18" height="18" fill="white" stroke="#FFB3C1" stroke-width="1.2" rx="3" ry="3"/><rect x="424.14285714285717" y="259.85714285714283" width="18" height="18" fill="white" stroke="#FFB3C1" stroke-width="1.2" rx="3" ry="3"/><rect x="481.2857142857143" y="259.85714285714283" width="18" height="18" fill="white" stroke="#FFB3C1" stroke-width="1.2" rx="3" ry="3"/><rect x="538.4285714285714" y="259.85714285714283" width="18" height="18" fill="white" stroke="#FFB3C1" stroke-width="1.2" rx="3" ry="3"/><rect x="36" y="309.1428571428571" width="540" height="80.57142857142857" fill="rgba(255,240,244,0.90)"/><rect x="195.57142857142858" y="340.4285714285714" width="18" height="18" fill="white" stroke="#FFB3C1" stroke-width="1.2" rx="3" ry="3"/><rect x="252.71428571428572" y="340.4285714285714" width="18" height="18" fill="white" stroke="#FFB3C1" stroke-width="1.2" rx="3" ry="3"/><rect x="309.8571428571429" y="340.4285714285714" width="18" height="18" fill="white" stroke="#FFB3C1" stroke-width="1.2" rx="3" ry="3"/><rect x="367" y="340.4285714285714" width="18" height="18" fill="white" stroke="#FFB3C1" stroke-width="1.2" rx="3" ry="3"/><rect x="424.14285714285717" y="340.4285714285714" width="18" height="18" fill="white" stroke="#FFB3C1" stroke-width="1.2" rx="3" ry="3"/><rect x="481.2857142857143" y="340.4285714285714" width="18" height="18" fill="white" stroke="#FFB3C1" stroke-width="1.2" rx="3" ry="3"/><rect x="538.4285714285714" y="340.4285714285714" width="18" height="18" fill="white" stroke="#FFB3C1" stroke-width="1.2" rx="3" ry="3"/><rect x="36" y="389.7142857142857" width="540" height="80.57142857142857" fill="rgba(255,255,255,0.97)"/><rect x="195.57142857142858" y="421" width="18" height="18" fill="white" stroke="#FFB3C1" stroke-width="1.2" rx="3" ry="3"/><rect x="252.71428571428572" y="421" width="18" height="18" fill="white" stroke="#FFB3C1" stroke-width="1.2" rx="3" ry="3"/><rect x="309.8571428571429" y="421" width="18" height="18" fill="white" stroke="#FFB3C1" stroke-width="1.2" rx="3" ry="3"/><rect x="367" y="421" width="18" height="18" fill="white" stroke="#FFB3C1" stroke-width="1.2" rx="3" ry="3"/><rect x="424.14285714285717" y="421" width="18" height="18" fill="white" stroke="#FFB3C1" stroke-width="1.2" rx="3" ry="3"/><rect x="481.2857142857143" y="421" width="18" height="18" fill="white" stroke="#FFB3C1" stroke-width="1.2" rx="3" ry="3"/><rect x="538.4285714285714" y="421" width="18" height="18" fill="white" stroke="#FFB3C1" stroke-width="1.2" rx="3" ry="3"/><rect x="36" y="470.2857142857143" width="540" height="80.57142857142857" fill="rgba(255,240,244,0.90)"/><rect x="195.57142857142858" y="501.57142857142856" width="18" height="18" fill="white" stroke="#FFB3C1" stroke-width="1.2" rx="3" ry="3"/><rect x="252.71428571428572" y="501.57142857142856" width="18" height="18" fill="white" stroke="#FFB3C1" stroke-width="1.2" rx="3" ry="3"/><rect x="309.8571428571429" y="501.57142857142856" width="18" height="18" fill="white" stroke="#FFB3C1" stroke-width="1.2" rx="3" ry="3"/><rect x="367" y="501.57142857142856" width="18" height="18" fill="white" stroke="#FFB3C1" stroke-width="1.2" rx="3" ry="3"/><rect x="424.14285714285717" y="501.57142857142856" width="18" height="18" fill="white" stroke="#FFB3C1" stroke-width="1.2" rx="3" ry="3"/><rect x="481.2857142857143" y="501.57142857142856" width="18" height="18" fill="white" stroke="#FFB3C1" stroke-width="1.2" rx="3" ry="3"/><rect x="538.4285714285714" y="501.57142857142856" width="18" height="18" fill="white" stroke="#FFB3C1" stroke-width="1.2" rx="3" ry="3"/><rect x="36" y="550.8571428571429" width="540" height="80.57142857142857" fill="rgba(255,255,255,0.97)"/><rect x="195.57142857142858" y="582.1428571428572" width="18" height="18" fill="white" stroke="#FFB3C1" stroke-width="1.2" rx="3" ry="3"/><rect x="252.71428571428572" y="582.1428571428572" width="18" height="18" fill="white" stroke="#FFB3C1" stroke-width="1.2" rx="3" ry="3"/><rect x="309.8571428571429" y="582.1428571428572" width="18" height="18" fill="white" stroke="#FFB3C1" stroke-width="1.2" rx="3" ry="3"/><rect x="367" y="582.1428571428572" width="18" height="18" fill="white" stroke="#FFB3C1" stroke-width="1.2" rx="3" ry="3"/><rect x="424.14285714285717" y="582.1428571428572" width="18" height="18" fill="white" stroke="#FFB3C1" stroke-width="1.2" rx="3" ry="3"/><rect x="481.2857142857143" y="582.1428571428572" width="18" height="18" fill="white" stroke="#FFB3C1" stroke-width="1.2" rx="3" ry="3"/><rect x="538.4285714285714" y="582.1428571428572" width="18" height="18" fill="white" stroke="#FFB3C1" stroke-width="1.2" rx="3" ry="3"/><rect x="36" y="631.4285714285714" width="540" height="80.57142857142857" fill="rgba(255,240,244,0.90)"/><rect x="195.57142857142858" y="662.7142857142858" width="18" height="18" fill="white" stroke="#FFB3C1" stroke-width="1.2" rx="3" ry="3"/><rect x="252.71428571428572" y="662.7142857142858" width="18" height="18" fill="white" stroke="#FFB3C1" stroke-width="1.2" rx="3" ry="3"/><rect x="309.8571428571429" y="662.7142857142858" width="18" height="18" fill="white" stroke="#FFB3C1" stroke-width="1.2" rx="3" ry="3"/><rect x="367" y="662.7142857142858" width="18" height="18" fill="white" stroke="#FFB3C1" stroke-width="1.2" rx="3" ry="3"/><rect x="424.14285714285717" y="662.7142857142858" width="18" height="18" fill="white" stroke="#FFB3C1" stroke-width="1.2" rx="3" ry="3"/><rect x="481.2857142857143" y="662.7142857142858" width="18" height="18" fill="white" stroke="#FFB3C1" stroke-width="1.2" rx="3" ry="3"/><rect x="538.4285714285714" y="662.7142857142858" width="18" height="18" fill="white" stroke="#FFB3C1" stroke-width="1.2" rx="3" ry="3"/><rect x="36" y="120" width="540" height="592" fill="none" stroke="#FFB3C1" stroke-width="1" rx="4" ry="4"/><line x1="176" y1="120" x2="176" y2="712" stroke="#FFB3C1" stroke-width="0.5" opacity="0.4"/><line x1="233.14285714285714" y1="120" x2="233.14285714285714" y2="712" stroke="#FFB3C1" stroke-width="0.5" opacity="0.4"/><line x1="290.2857142857143" y1="120" x2="290.2857142857143" y2="712" stroke="#FFB3C1" stroke-width="0.5" opacity="0.4"/><line x1="347.42857142857144" y1="120" x2="347.42857142857144" y2="712" stroke="#FFB3C1" stroke-width="0.5" opacity="0.4"/><line x1="404.57142857142856" y1="120" x2="404.57142857142856" y2="712" stroke="#FFB3C1" stroke-width="0.5" opacity="0.4"/><line x1="461.7142857142857" y1="120" x2="461.7142857142857" y2="712" stroke="#FFB3C1" stroke-width="0.5" opacity="0.4"/><line x1="518.8571428571429" y1="120" x2="518.8571428571429" y2="712" stroke="#FFB3C1" stroke-width="0.5" opacity="0.4"/><line x1="176" y1="120" x2="176" y2="712" stroke="#FFB3C1" stroke-width="0.8"/><text x="306" y="748" text-anchor="middle" font-family="Helvetica, Arial, sans-serif" font-size="9" fill="#FFB3C1" opacity="0.7">Chart template by Flinkis — printablechorechart.com  •  CC-BY-4.0</text></svg>